<svg xmlns="http://www.w3.org/2000/svg" id="apple-store" x="0" y="0" enable-background="new 0 0 100 100" version="1.1" viewBox="0 0 100 100" xml:space="preserve"><g id="Symbols"><linearGradient id="path-2_7_" x1="286.983" x2="286.983" y1="748.266" y2="746.767" gradientTransform="matrix(60 0 0 -60 -17169 44901)" gradientUnits="userSpaceOnUse"><stop offset="0" stop-color="#19E6FF"></stop><stop offset="1" stop-color="#1E51EE"></stop></linearGradient><path id="path-2_1_" fill="url(#path-2_7_)" d="M63.6 5c9 0 13.5 0 18.4 1.5 5.3 1.9 9.5 6.1 11.4 11.4C95 22.8 95 27.4 95 36.4v27.2c0 9 0 13.5-1.5 18.4-1.9 5.3-6.1 9.5-11.4 11.4-5 1.6-9.5 1.6-18.5 1.6H36.4c-9 0-13.5 0-18.4-1.5-5.4-2-9.5-6.1-11.5-11.5C5 77.2 5 72.7 5 63.6V36.4c0-9 0-13.5 1.5-18.4 2-5.3 6.1-9.5 11.5-11.4C22.8 5 27.3 5 36.4 5h27.2z"></path><defs><filter id="Adobe_OpacityMaskFilter" width="66.2" height="58.1" x="17" y="21.5" filterUnits="userSpaceOnUse"><feColorMatrix values="1 0 0 0 0 0 1 0 0 0 0 0 1 0 0 0 0 0 1 0"></feColorMatrix></filter></defs><mask id="mask-3_1_" width="66.2" height="58.1" x="17" y="21.5" maskUnits="userSpaceOnUse"><g filter="url(#Adobe_OpacityMaskFilter)"><path id="path-2_2_" fill="#fff" d="M63.6 5c9 0 13.5 0 18.4 1.5 5.3 1.9 9.5 6.1 11.4 11.4C95 22.8 95 27.4 95 36.4v27.2c0 9 0 13.5-1.5 18.4-1.9 5.3-6.1 9.5-11.4 11.4-5 1.6-9.5 1.6-18.5 1.6H36.4c-9 0-13.5 0-18.4-1.5-5.4-2-9.5-6.1-11.5-11.5C5 77.2 5 72.7 5 63.6V36.4c0-9 0-13.5 1.5-18.4 2-5.3 6.1-9.5 11.5-11.4C22.8 5 27.3 5 36.4 5h27.2z"></path></g></mask><path id="Icon" fill="#fff" d="M25.3 68.3c.1-.2.3-.3.5-.4.8-.2 1.6-.4 2.4-.4 2.2 0 4.2.8 5.8 2.2.2.2.2.5.1.7l-4.1 7c-.8 1.4-2.3 2.2-3.8 2.2-.9 0-1.8-.3-2.6-.9-1.8-1.3-2.2-3.9-1.1-5.8l2.8-4.6zm53.3-10.7c2.3 0 4.3 1.7 4.5 3.9.2 2.6-1.8 4.8-4.3 4.8h-5.3l3.9 6.7c1.1 1.9.7 4.5-1.1 5.8-.8.6-1.7.9-2.6.9-1.5 0-3-.8-3.8-2.2l-9.4-16.3-7.4-12.8c-.1-.1-.1-.2-.1-.4 0-.5-.1-1-.1-1.5 0-3.5.8-7 2.4-9.8.2-.3.7-.3.9 0l12.2 20.8h10.2zm-23 .2c2.2 1.3 3.6 3.8 3.6 6.6 0 .6-.1 1.1-.2 1.7 0 .1-.2.2-.3.2H21.4c-2.5 0-4.6-2.2-4.3-4.8.2-2.3 2.2-3.9 4.5-3.9h9.9L45 34.4l-3.7-6.3c-1.3-2.2-.4-5.1 2-6.1 2.1-.9 4.5 0 5.7 1.9l1.1 1.9 1.2-2c1.3-2.2 4.2-2.9 6.3-1.4 1.9 1.3 2.3 3.9 1.1 5.9L41.5 57.6h13.4c.3 0 .5.1.7.2z" mask="url(#mask-3_1_)"></path></g></svg>